<?xml version="1.0" encoding="UTF-8" standalone="no"?>
<svg
   width="424"
   height="67"
   viewBox="0 0 424 67"
   fill="none"
   version="1.1"
   id="svg8"
   sodipodi:docname="Acadêmic (Stroke).svg"
   inkscape:version="1.4 (86a8ad7, 2024-10-11)"
   xmlns:inkscape="http://www.inkscape.org/namespaces/inkscape"
   xmlns:sodipodi="http://sodipodi.sourceforge.net/DTD/sodipodi-0.dtd"
   xmlns="http://www.w3.org/2000/svg"
   xmlns:svg="http://www.w3.org/2000/svg">
  <defs
     id="defs8" />
  <sodipodi:namedview
     id="namedview8"
     pagecolor="#505050"
     bordercolor="#eeeeee"
     borderopacity="1"
     inkscape:showpageshadow="0"
     inkscape:pageopacity="0"
     inkscape:pagecheckerboard="0"
     inkscape:deskcolor="#505050"
     inkscape:zoom="0.7392101"
     inkscape:cx="-43.96585"
     inkscape:cy="153.54227"
     inkscape:window-width="1920"
     inkscape:window-height="991"
     inkscape:window-x="-9"
     inkscape:window-y="-9"
     inkscape:window-maximized="1"
     inkscape:current-layer="svg8" />
  <path
     fill-rule="evenodd"
     clip-rule="evenodd"
     d="M387.973 62.0668C391.333 63.9708 395.197 64.9228 399.565 64.9228C405.053 64.9228 409.701 63.4388 413.509 60.4708C416.799 57.9067 419.044 54.5694 420.244 50.4588C420.433 49.8113 420.596 49.1447 420.733 48.4588H407.377C407.041 49.6908 406.481 50.7268 405.697 51.5668C404.969 52.4068 404.073 53.0508 403.009 53.4988C402.001 53.9468 400.825 54.1708 399.481 54.1708C398.081 54.1708 396.821 53.9188 395.701 53.4148C394.581 52.8548 393.601 52.0708 392.761 51.0628C391.977 50.0548 391.361 48.8508 390.913 47.4508C390.465 46.0508 390.241 44.4828 390.241 42.7468C390.241 40.4508 390.633 38.4628 391.417 36.7828C392.201 35.0468 393.265 33.7308 394.609 32.8348C396.009 31.8828 397.633 31.4068 399.481 31.4068C401.441 31.4068 403.121 31.9108 404.521 32.9188C405.921 33.9268 406.873 35.3268 407.377 37.1188H420.733C420.6 36.4322 420.443 35.7655 420.261 35.1188C419.066 30.8602 416.815 27.4669 413.509 24.9388C409.757 22.0268 405.109 20.5708 399.565 20.5708C395.197 20.5708 391.333 21.5508 387.973 23.5108C384.669 25.4148 382.065 28.0468 380.161 31.4068C378.313 34.7108 377.389 38.5468 377.389 42.9148C377.389 47.1708 378.313 50.9508 380.161 54.2548C382.065 57.5588 384.669 60.1628 387.973 62.0668ZM386.969 21.7811C390.67 19.623 394.889 18.5708 399.565 18.5708C405.473 18.5708 410.572 20.1293 414.73 23.3546C418.966 26.5964 421.607 31.1076 422.697 36.7388L423.157 39.1188H405.862L405.452 37.6603C405.06 36.2672 404.355 35.2638 403.353 34.5419C402.338 33.8115 401.081 33.4068 399.481 33.4068C397.996 33.4068 396.772 33.7829 395.734 34.4887L395.726 34.4938L395.719 34.4989C394.739 35.1522 393.898 36.1495 393.24 37.606L393.235 37.6173L393.23 37.6286C392.595 38.9884 392.241 40.6751 392.241 42.7468C392.241 44.3123 392.443 45.6702 392.818 46.8413C393.201 48.0375 393.709 49.0162 394.319 49.8084C394.976 50.5904 395.722 51.1826 396.559 51.6074C397.379 51.9697 398.342 52.1708 399.481 52.1708C400.605 52.1708 401.494 51.9835 402.197 51.6712L402.215 51.6632L402.233 51.6555C403.026 51.3218 403.667 50.856 404.186 50.2569L404.21 50.2291L404.235 50.2022C404.774 49.625 405.187 48.8868 405.448 47.9326L405.85 46.4588H423.173L422.694 48.851C421.599 54.3281 418.95 58.7656 414.739 62.0483C410.532 65.327 405.435 66.9228 399.565 66.9228C394.898 66.9228 390.686 65.9026 386.987 63.8068L386.981 63.8033L386.975 63.7997C383.365 61.7198 380.508 58.8625 378.428 55.2534L378.422 55.2423L378.416 55.2311C376.381 51.5932 375.389 47.4694 375.389 42.9148C375.389 38.2581 376.377 34.076 378.416 30.4305L378.421 30.4208C380.498 26.7561 383.354 23.8655 386.969 21.7811Z"
     fill="currentColor"
     id="path1" />
  <path
     fill-rule="evenodd"
     clip-rule="evenodd"
     d="M352.946 65.9148V19.5788H369.546V65.9148H352.946ZM361.246 18.7068C358.599 18.7068 356.265 17.9334 354.432 16.2467C352.606 14.5671 351.686 12.4029 351.686 9.9028C351.686 7.36505 352.593 5.16638 354.432 3.47494C356.265 1.78824 358.599 1.0148 361.246 1.0148C363.927 1.0148 366.289 1.77578 368.13 3.46157C370.023 5.14331 370.974 7.34453 370.974 9.9028C370.974 12.4239 370.009 14.5906 368.13 16.2601C366.289 17.9458 363.927 18.7068 361.246 18.7068ZM366.79 14.7748C368.246 13.4868 368.974 11.8628 368.974 9.9028C368.974 7.8868 368.246 6.2348 366.79 4.9468C365.39 3.6588 363.542 3.0148 361.246 3.0148C359.006 3.0148 357.186 3.6588 355.786 4.9468C354.386 6.2348 353.686 7.8868 353.686 9.9028C353.686 11.8628 354.386 13.4868 355.786 14.7748C357.186 16.0628 359.006 16.7068 361.246 16.7068C363.542 16.7068 365.39 16.0628 366.79 14.7748ZM354.946 63.9148H367.546V21.5788H354.946V63.9148Z"
     fill="currentColor"
     id="path2" />
  <path
     fill-rule="evenodd"
     clip-rule="evenodd"
     d="M285.555 21.5788H274.551V63.9148H287.151V41.4028C287.151 39.2748 287.487 37.4548 288.159 35.9428C288.887 34.4308 289.867 33.2548 291.099 32.4148C292.387 31.5748 293.815 31.1548 295.383 31.1548C298.127 31.1548 300.115 32.0228 301.347 33.7588C302.579 35.4388 303.195 37.8188 303.195 40.8988V63.9148H315.711V41.4028C315.711 39.2748 316.047 37.4548 316.719 35.9428C317.447 34.4308 318.455 33.2548 319.743 32.4148C321.031 31.5748 322.515 31.1548 324.195 31.1548C326.827 31.1548 328.731 32.0228 329.907 33.7588C331.139 35.4388 331.755 37.8188 331.755 40.8988V63.9148H344.271V39.8068C344.271 35.7188 343.655 32.2468 342.423 29.3908C341.191 26.5348 339.315 24.3508 336.795 22.8388C334.331 21.3268 331.195 20.5708 327.387 20.5708C324.419 20.5708 321.675 21.2148 319.155 22.5028C317.299 23.4104 315.686 24.5763 314.315 26.0006C313.826 26.5096 313.367 27.0517 312.939 27.6268C312.595 26.9842 312.213 26.3887 311.794 25.8402C311.19 25.0502 310.507 24.3577 309.747 23.7628C308.459 22.6988 306.975 21.9148 305.295 21.4108C303.615 20.8508 301.739 20.5708 299.667 20.5708C296.755 20.5708 294.179 21.1588 291.939 22.3348C290.553 23.0811 289.336 23.9854 288.289 25.0475C287.685 25.6589 287.138 26.3227 286.647 27.0388L285.555 21.5788ZM287.828 22.742L287.195 19.5788H272.551V65.9148H289.151V41.4028C289.151 39.4924 289.452 37.9726 289.975 36.7823C290.564 35.5684 291.317 34.6919 292.209 34.0787C293.161 33.4626 294.202 33.1548 295.383 33.1548C297.687 33.1548 298.965 33.8581 299.716 34.9163L299.725 34.929L299.734 34.9415C300.62 36.1496 301.195 38.0502 301.195 40.8988V65.9148H317.711V41.4028C317.711 39.4924 318.012 37.9727 318.535 36.7824C319.118 35.5827 319.889 34.7078 320.836 34.09C321.769 33.4815 322.866 33.1548 324.195 33.1548C326.355 33.1548 327.543 33.8351 328.251 34.8805L328.272 34.9114L328.294 34.9415C329.18 36.1496 329.755 38.0502 329.755 40.8988V65.9148H346.271V39.8068C346.271 35.5279 345.628 31.7701 344.26 28.5986C342.873 25.3848 340.729 22.8689 337.832 21.1286C334.97 19.3752 331.446 18.5708 327.387 18.5708C324.125 18.5708 321.072 19.2801 318.261 20.7138C316.328 21.6607 314.622 22.8674 313.152 24.3315C312.512 23.5397 311.796 22.8291 311.001 22.2046C309.51 20.9768 307.802 20.0786 305.899 19.504C303.992 18.872 301.907 18.5708 299.667 18.5708C296.481 18.5708 293.577 19.2161 291.01 20.564L291 20.5689L290.991 20.5739C289.837 21.1951 288.782 21.918 287.828 22.742Z"
     fill="currentColor"
     id="path3" />
  <path
     fill-rule="evenodd"
     clip-rule="evenodd"
     d="m 231.477,63.9867 -0.011,-0.0064 c -3.613,-2.0207 -6.476,-4.8213 -8.561,-8.3781 l -0.011,-0.0174 -0.01,-0.0177 c -2.034,-3.6379 -3.026,-7.7617 -3.026,-12.3163 0,-4.6582 0.988,-8.8845 3.013,-12.6276 2.018,-3.7306 4.848,-6.6858 8.467,-8.8325 3.653,-2.1672 7.851,-3.2199 12.528,-3.2199 4.553,0 8.633,0.9912 12.174,3.0411 3.494,2.0228 6.24,4.7955 8.208,8.2942 2.046,3.48 3.038,7.4739 3.038,11.9167 0,0.6035 -0.029,1.2753 -0.084,2.0107 -0.005,0.758 -0.07,1.5337 -0.191,2.3254 l -0.261,1.6959 h -30.02 c 0.123,0.4006 0.27,0.7794 0.441,1.1376 0.617,1.1793 1.448,2.0628 2.501,2.6984 1.102,0.6322 2.449,0.984 4.11,0.984 1.591,0 2.703,-0.3129 3.473,-0.7863 0.974,-0.6222 1.686,-1.3691 2.182,-2.238 l 0.576,-1.0077 h 16.68 l -0.747,2.56 c -0.868,2.9761 -2.357,5.6675 -4.445,8.0623 l -0.008,0.0097 -0.009,0.0096 c -2.094,2.3406 -4.64,4.2057 -7.612,5.6009 l -0.016,0.0071 -0.015,0.0069 c -3.026,1.3587 -6.333,2.0235 -9.891,2.0235 -4.647,0 -8.821,-0.9551 -12.462,-2.9299 z m 16.841,-10.4039 c -1.176,0.728 -2.688,1.092 -4.536,1.092 -1.96,0 -3.668,-0.42 -5.124,-1.26 -1.4,-0.84 -2.492,-2.016 -3.276,-3.528 -0.307,-0.6375 -0.549,-1.3148 -0.727,-2.032 -0.157,-0.6354 -0.264,-1.3021 -0.319,-2 h 30.698 c 0.112,-0.728 0.168,-1.428 0.168,-2.1 0.056,-0.728 0.084,-1.372 0.084,-1.932 0,-4.144 -0.924,-7.784 -2.772,-10.92 -1.792,-3.192 -4.284,-5.712 -7.476,-7.56 -3.192,-1.848 -6.916,-2.772 -11.172,-2.772 -4.368,0 -8.204,0.98 -11.508,2.94 -3.304,1.96 -5.88,4.648 -7.728,8.064 -1.848,3.416 -2.772,7.308 -2.772,11.676 0,4.256 0.924,8.036 2.772,11.34 1.904,3.248 4.508,5.796 7.812,7.644 3.304,1.792 7.14,2.688 11.508,2.688 3.304,0 6.328,-0.616 9.072,-1.848 2.744,-1.288 5.068,-2.996 6.972,-5.124 1.42,-1.6291 2.529,-3.3985 3.326,-5.308 0.271,-0.6504 0.507,-1.3171 0.706,-2 h -12.852 c -0.672,1.176 -1.624,2.156 -2.856,2.94 z m -13.696,-15.036 h 17.812 c -0.034,-0.71 -0.137,-1.3767 -0.308,-2 -0.397,-1.4413 -1.162,-2.6507 -2.296,-3.628 -1.568,-1.456 -3.528,-2.184 -5.88,-2.184 -1.792,0 -3.416,0.42 -4.872,1.26 -1.456,0.84 -2.632,2.1 -3.528,3.78 -0.124,0.2476 -0.239,0.5049 -0.344,0.772 -0.243,0.6151 -0.438,1.2817 -0.584,2 z m 2.785,-2 h 12.617 c -0.323,-0.8405 -0.827,-1.5329 -1.5,-2.1132 l -0.028,-0.0241 -0.027,-0.0251 c -1.16,-1.0772 -2.617,-1.6496 -4.519,-1.6496 -1.465,0 -2.741,0.3393 -3.873,0.9924 -1.045,0.6033 -1.942,1.5155 -2.67,2.8196 z m -8.393,-15.47 29.284,0.0107 z"
     fill="currentColor"
     id="path4"
     sodipodi:nodetypes="cccccsccsccsccccccscccccccccccscccsccccccscsssssccsccccccccccsscccccscssccccc" />
  <path
     fill-rule="evenodd"
     clip-rule="evenodd"
     d="M174.928 63.7636L174.921 63.7593C171.591 61.6628 168.951 58.7977 167.005 55.2083L166.995 55.1907L166.986 55.1728C165.086 51.4951 164.159 47.3657 164.159 42.8308C164.159 38.2383 165.115 34.0962 167.085 30.4606C169.033 26.8096 171.705 23.9112 175.098 21.8128C178.561 19.6493 182.401 18.5708 186.571 18.5708C189.719 18.5708 192.571 19.1452 195.072 20.3597C195.968 20.7747 196.808 21.2612 197.591 21.8182V1.43478H214.191V65.9148H199.475L198.594 62.5498C198.322 62.7979 198.04 63.0408 197.749 63.2787L197.741 63.2853C196.357 64.4059 194.717 65.2644 192.859 65.8868C190.913 66.5958 188.69 66.9228 186.235 66.9228C182.125 66.9228 178.343 65.8746 174.935 63.768L174.928 63.7636ZM192.199 63.9988C193.879 63.4388 195.307 62.6828 196.483 61.7308C197.032 61.2812 197.543 60.8148 198.014 60.3318C198.6 59.7319 199.125 59.1062 199.591 58.4548L201.019 63.9148H212.191V3.43478H199.591V26.6188C198.995 25.7848 198.328 25.037 197.591 24.3754C196.595 23.4821 195.469 22.7459 194.215 22.1668C192.031 21.1028 189.483 20.5708 186.571 20.5708C182.763 20.5708 179.291 21.5508 176.155 23.5108C173.075 25.4148 170.639 28.0468 168.847 31.4068C167.055 34.7108 166.159 38.5188 166.159 42.8308C166.159 47.0868 167.027 50.8948 168.763 54.2548C170.555 57.5588 172.963 60.1628 175.987 62.0668C179.067 63.9708 182.483 64.9228 186.235 64.9228C188.531 64.9228 190.519 64.6148 192.199 63.9988ZM193.946 50.7732L193.959 50.7654C195.25 50.0088 196.211 48.9811 196.878 47.6484L196.89 47.6248L196.902 47.6016C197.622 46.2514 198.011 44.6512 198.011 42.7468C198.011 40.8424 197.622 39.2422 196.902 37.892L196.89 37.8687L196.878 37.8452C196.211 36.5125 195.25 35.4848 193.959 34.7282L193.946 34.7204L193.933 34.7124C192.717 33.974 191.265 33.5748 189.511 33.5748C187.83 33.5748 186.368 33.966 185.076 34.7203C183.833 35.4781 182.851 36.5209 182.119 37.892C181.395 39.2496 181.011 40.8238 181.011 42.6628C181.011 44.5606 181.397 46.1962 182.126 47.6138C182.856 48.9789 183.836 50.0177 185.076 50.7733C186.368 51.5275 187.83 51.9188 189.511 51.9188C191.265 51.9188 192.717 51.5195 193.933 50.7812L193.946 50.7732ZM184.051 52.4908C182.483 51.5388 181.251 50.2228 180.355 48.5428C179.459 46.8068 179.011 44.8468 179.011 42.6628C179.011 40.5348 179.459 38.6308 180.355 36.9508C181.251 35.2708 182.483 33.9548 184.051 33.0028C185.675 32.0508 187.495 31.5748 189.511 31.5748C191.583 31.5748 193.403 32.0508 194.971 33.0028C196.595 33.9548 197.827 35.2708 198.667 36.9508C199.563 38.6308 200.011 40.5628 200.011 42.7468C200.011 44.9308 199.563 46.8628 198.667 48.5428C197.827 50.2228 196.595 51.5388 194.971 52.4908C193.403 53.4428 191.583 53.9188 189.511 53.9188C187.495 53.9188 185.675 53.4428 184.051 52.4908Z"
     fill="currentColor"
     id="path5" />
  <path
     fill-rule="evenodd"
     clip-rule="evenodd"
     d="M122.844 63.2428C125.196 64.3628 128.136 64.9228 131.664 64.9228C133.288 64.9228 134.772 64.7548 136.116 64.4188C137.46 64.0828 138.692 63.6068 139.812 62.9908C140.932 62.3188 141.912 61.5628 142.752 60.7228C142.981 60.478 143.202 60.227 143.415 59.9697C143.981 59.2851 144.488 58.5561 144.936 57.7828L146.448 63.9148H156.948V37.7068C156.948 33.9548 156.108 30.8188 154.428 28.2988C152.804 25.7788 150.508 23.8748 147.54 22.5868C144.572 21.2428 141.072 20.5708 137.04 20.5708C133.344 20.5708 130.068 21.2148 127.212 22.5028C124.356 23.7908 122.06 25.5548 120.324 27.7948C119.025 29.526 118.145 31.4913 117.683 33.6908C117.547 34.3372 117.447 35.0039 117.384 35.6908H129.48C129.816 34.0108 130.656 32.7788 132 31.9948C133.344 31.2108 134.996 30.8188 136.956 30.8188C138.804 30.8188 140.26 31.1268 141.324 31.7428C142.388 32.3588 143.144 33.2828 143.592 34.5148C143.907 35.2849 144.123 36.1862 144.241 37.2188C144.312 37.8382 144.348 38.5049 144.348 39.2188H134.1C130.012 39.2188 126.624 39.8068 123.936 40.9828C121.248 42.1028 119.26 43.6428 117.972 45.6028C116.74 47.5068 116.124 49.7188 116.124 52.2388C116.124 54.5908 116.656 56.7468 117.72 58.7068C118.84 60.6108 120.548 62.1228 122.844 63.2428ZM123.15 39.1435C124.653 38.4876 126.32 38.0075 128.142 37.6908H115.19L115.392 35.5064C115.703 32.1465 116.803 29.1556 118.724 26.5948L118.733 26.5822L118.743 26.5697C120.699 24.0449 123.267 22.0875 126.389 20.6796C129.546 19.256 133.11 18.5708 137.04 18.5708C141.284 18.5708 145.073 19.2771 148.35 20.7585C151.639 22.1888 154.248 24.3343 156.1 27.2025C158.041 30.1194 158.948 33.6608 158.948 37.7068V65.9148H144.881L143.992 62.3085C143.066 63.2048 142.013 64.0024 140.841 64.7058L140.808 64.7251L140.775 64.7432C139.492 65.4488 138.098 65.9848 136.601 66.3591C135.074 66.7409 133.424 66.9228 131.664 66.9228C127.938 66.9228 124.682 66.3334 121.984 65.0485L121.975 65.0445L121.967 65.0403C119.374 63.7757 117.345 62.0141 115.996 59.7208L115.978 59.6912L115.962 59.661C114.73 57.392 114.124 54.9053 114.124 52.2388C114.124 49.3777 114.828 46.7793 116.292 44.5163L116.296 44.5104L116.3 44.5044C117.852 42.1423 120.191 40.3794 123.15 39.1435ZM131.193 37.3211C132.129 37.2525 133.098 37.2188 134.1 37.2188H142.226C142.121 36.4368 141.954 35.7931 141.74 35.2721L141.725 35.2355L141.712 35.1983C141.413 34.376 140.951 33.8381 140.321 33.4737C139.678 33.101 138.615 32.8188 136.956 32.8188C135.259 32.8188 133.976 33.1575 133.007 33.7224C132.211 34.187 131.677 34.9005 131.441 36.083L131.193 37.3211ZM138.3 54.6748C137.292 55.1228 136.116 55.3468 134.772 55.3468C133.764 55.3468 132.84 55.2068 132 54.9268C131.216 54.5908 130.572 54.1148 130.068 53.4988C129.62 52.8268 129.396 52.0148 129.396 51.0628C129.396 50.1668 129.62 49.3828 130.068 48.7108C130.516 48.0388 131.188 47.5348 132.084 47.1988C133.036 46.8068 134.212 46.6108 135.612 46.6108H143.76V46.6948C143.639 47.3578 143.478 47.9965 143.276 48.6108C143.103 49.1381 142.9 49.6474 142.668 50.1388C142.22 51.1468 141.632 52.0428 140.904 52.8268C140.176 53.6108 139.308 54.2268 138.3 54.6748ZM141.151 48.6108C141.061 48.8398 140.964 49.0637 140.86 49.2826L140.85 49.3045L140.84 49.3265C140.479 50.1393 140.011 50.8486 139.438 51.4659C138.9 52.0456 138.256 52.5055 137.487 52.8472C136.784 53.1595 135.895 53.3468 134.772 53.3468C133.985 53.3468 133.304 53.2426 132.713 53.0558C132.279 52.8587 131.945 52.6087 131.683 52.3115C131.516 52.0284 131.396 51.6374 131.396 51.0628C131.396 50.5168 131.526 50.1282 131.732 49.8202C131.906 49.5581 132.208 49.2882 132.786 49.0715L132.816 49.0603L132.845 49.0482C133.485 48.7845 134.385 48.6108 135.612 48.6108H141.151Z"
     fill="currentColor"
     id="path6" />
  <path
     fill-rule="evenodd"
     clip-rule="evenodd"
     d="M74.6958 62.0668C78.0558 63.9708 81.9198 64.9228 86.2878 64.9228C91.7758 64.9228 96.4238 63.4388 100.232 60.4708C103.522 57.9067 105.767 54.5694 106.967 50.4588C107.156 49.8113 107.319 49.1447 107.456 48.4588H94.0998C93.7638 49.6908 93.2038 50.7268 92.4198 51.5668C91.6918 52.4068 90.7958 53.0508 89.7318 53.4988C88.7238 53.9468 87.5478 54.1708 86.2038 54.1708C84.8038 54.1708 83.5438 53.9188 82.4238 53.4148C81.3038 52.8548 80.3238 52.0708 79.4838 51.0628C78.6998 50.0548 78.0838 48.8508 77.6358 47.4508C77.1878 46.0508 76.9638 44.4828 76.9638 42.7468C76.9638 40.4508 77.3558 38.4628 78.1398 36.7828C78.9238 35.0468 79.9878 33.7308 81.3318 32.8348C82.7318 31.8828 84.3558 31.4068 86.2038 31.4068C88.1638 31.4068 89.8438 31.9108 91.2438 32.9188C92.6438 33.9268 93.5958 35.3268 94.0998 37.1188H107.456C107.323 36.4322 107.166 35.7655 106.984 35.1188C105.789 30.8602 103.538 27.4669 100.232 24.9388C96.4798 22.0268 91.8318 20.5708 86.2878 20.5708C81.9198 20.5708 78.0558 21.5508 74.6958 23.5108C71.3918 25.4148 68.7878 28.0468 66.8838 31.4068C65.0358 34.7108 64.1118 38.5468 64.1118 42.9148C64.1118 47.1708 65.0358 50.9508 66.8838 54.2548C68.7878 57.5588 71.3918 60.1628 74.6958 62.0668ZM73.6931 21.7803C77.394 19.6227 81.6123 18.5708 86.2878 18.5708C92.1957 18.5708 97.2938 20.1292 101.452 23.3542C105.689 26.596 108.329 31.1074 109.419 36.7388L109.88 39.1188H92.5847L92.1745 37.6603C91.7827 36.2672 91.0779 35.2638 90.0752 34.5419C89.0608 33.8115 87.8038 33.4068 86.2038 33.4068C84.7185 33.4068 83.4944 33.7829 82.4564 34.4887L82.4488 34.4938L82.4412 34.4989C81.4613 35.1522 80.6203 36.1495 79.9626 37.606L79.9574 37.6173L79.9522 37.6286C79.3176 38.9884 78.9638 40.6751 78.9638 42.7468C78.9638 44.3123 79.1659 45.6702 79.5407 46.8413C79.9235 48.0375 80.4313 49.0161 81.042 49.8083C81.6991 50.5904 82.4442 51.1826 83.2814 51.6074C84.1016 51.9697 85.0644 52.1708 86.2038 52.1708C87.3277 52.1708 88.2167 51.9835 88.9195 51.6712L88.9375 51.6632L88.9557 51.6555C89.7482 51.3218 90.3892 50.856 90.9084 50.2569L90.9326 50.2291L90.9577 50.2022C91.4964 49.625 91.9101 48.8868 92.1703 47.9326L92.5722 46.4588H109.895L109.417 48.851C108.322 54.3281 105.673 58.7656 101.461 62.0483C97.2546 65.327 92.1573 66.9228 86.2878 66.9228C81.6203 66.9228 77.4082 65.9026 73.7098 63.8068L73.7035 63.8033L73.6972 63.7997C70.0881 61.7198 67.2308 58.8625 65.151 55.2534L65.1446 55.2423L65.1383 55.2311C63.1035 51.5932 62.1118 47.4694 62.1118 42.9148C62.1118 38.2581 63.0993 34.076 65.1383 30.4305L65.1437 30.4208C67.2206 26.7556 70.0775 23.8648 73.6931 21.7803Z"
     fill="currentColor"
     id="path7" />
  <path
     fill-rule="evenodd"
     clip-rule="evenodd"
     d="M2.85714 63.9148H16.0451L20.4744 51.0628H42.3599L46.7891 63.9148H60.1451L38.7251 5.11479H24.2771L2.85714 63.9148ZM23.8325 41.3188H39.0018L31.4171 19.3108L23.8325 41.3188ZM31.4171 25.449L26.6372 39.3188H36.1971L31.4171 25.449ZM40.9338 53.0628L45.363 65.9148H63.0023L40.1251 3.11479H22.8771L0 65.9148H17.4713L21.9005 53.0628H40.9338Z"
     fill="currentColor"
     id="path8" />
</svg>
