<svg width="418" height="94" viewBox="0 0 418 94" fill="none" xmlns="http://www.w3.org/2000/svg">
<path fill-rule="evenodd" clip-rule="evenodd" d="M324.576 70.1297L324.568 70.1255C321.975 68.8609 319.946 67.0993 318.597 64.806L318.58 64.7764L318.563 64.7462C317.331 62.4772 316.725 59.9905 316.725 57.324C316.725 54.4629 317.429 51.8645 318.894 49.6015L318.898 49.5956L318.901 49.5896C320.454 47.2275 322.792 45.4646 325.751 44.2287C327.254 43.5728 328.922 43.0927 330.743 42.776H317.791L317.993 40.5916C318.304 37.2317 319.404 34.2408 321.325 31.68L321.334 31.6674L321.344 31.6549C323.301 29.1301 325.869 27.1727 328.991 25.7648C332.147 24.3412 335.712 23.656 339.641 23.656C343.885 23.656 347.673 24.3622 350.951 25.8434C354.24 27.2737 356.85 29.4197 358.702 32.2885C360.642 35.2052 361.549 38.7463 361.549 42.792V71H347.482L346.593 67.3937C345.668 68.29 344.614 69.0876 343.442 69.791L343.41 69.8103L343.377 69.8284C342.094 70.534 340.699 71.07 339.202 71.4443C337.675 71.8261 336.025 72.008 334.265 72.008C330.539 72.008 327.283 71.4186 324.585 70.1337L324.576 70.1297ZM346.016 65.0549C346.582 64.3703 347.089 63.6413 347.537 62.868L349.049 69H359.549V42.792C359.549 39.04 358.709 35.904 357.029 33.384C355.405 30.864 353.109 28.96 350.141 27.672C347.173 26.328 343.673 25.656 339.641 25.656C335.945 25.656 332.669 26.3 329.813 27.588C326.957 28.876 324.661 30.64 322.925 32.88C321.626 34.6112 320.746 36.5765 320.284 38.776C320.148 39.4224 320.048 40.0891 319.985 40.776H332.081C332.417 39.096 333.257 37.864 334.601 37.08C335.945 36.296 337.597 35.904 339.557 35.904C341.405 35.904 342.861 36.212 343.925 36.828C344.989 37.444 345.745 38.368 346.193 39.6C346.508 40.3701 346.724 41.2714 346.843 42.304C346.913 42.9234 346.949 43.5901 346.949 44.304H336.701C332.613 44.304 329.225 44.892 326.537 46.068C323.849 47.188 321.861 48.728 320.573 50.688C319.341 52.592 318.725 54.804 318.725 57.324C318.725 59.676 319.257 61.832 320.321 63.792C321.441 65.696 323.149 67.208 325.445 68.328C327.797 69.448 330.737 70.008 334.265 70.008C335.889 70.008 337.373 69.84 338.717 69.504C340.061 69.168 341.293 68.692 342.413 68.076C343.533 67.404 344.513 66.648 345.353 65.808C345.582 65.5632 345.803 65.3122 346.016 65.0549ZM344.827 42.304C344.723 41.522 344.555 40.8783 344.342 40.3573L344.327 40.3207L344.313 40.2835C344.014 39.4612 343.552 38.9233 342.923 38.5588C342.279 38.1862 341.217 37.904 339.557 37.904C337.86 37.904 336.577 38.2427 335.609 38.8076C334.812 39.2722 334.279 39.9857 334.042 41.1682L333.794 42.4063C334.73 42.3377 335.7 42.304 336.701 42.304H344.827ZM343.451 54.3897L343.461 54.3678C343.565 54.1489 343.662 53.925 343.752 53.696H338.213C336.986 53.696 336.087 53.8696 335.446 54.1334L335.417 54.1455L335.387 54.1567C334.809 54.3734 334.508 54.6433 334.333 54.9054C334.128 55.2134 333.997 55.602 333.997 56.148C333.997 56.7225 334.117 57.1136 334.284 57.3967C334.546 57.6939 334.88 57.9438 335.314 58.1409C335.906 58.3278 336.587 58.432 337.373 58.432C338.497 58.432 339.386 58.2447 340.089 57.9324C340.857 57.5907 341.501 57.1308 342.039 56.5511C342.612 55.9338 343.08 55.2245 343.441 54.4117L343.451 54.3897ZM334.601 60.012C333.817 59.676 333.173 59.2 332.669 58.584C332.221 57.912 331.997 57.1 331.997 56.148C331.997 55.252 332.221 54.468 332.669 53.796C333.117 53.124 333.789 52.62 334.685 52.284C335.637 51.892 336.813 51.696 338.213 51.696H346.361V51.78C346.24 52.443 346.079 53.0817 345.878 53.696C345.705 54.2233 345.502 54.7326 345.269 55.224C344.821 56.232 344.233 57.128 343.505 57.912C342.777 58.696 341.909 59.312 340.901 59.76C339.893 60.208 338.717 60.432 337.373 60.432C336.365 60.432 335.441 60.292 334.601 60.012ZM335.602 20.0201L335.547 19.9819C334.936 19.5505 334.276 19.34 333.509 19.34C333.138 19.34 332.842 19.4453 332.544 19.7063C332.334 19.9329 332.046 20.4338 331.867 21.4627L331.579 23.12H320.984L321.372 20.7912C322.075 16.574 323.44 13.1775 325.722 10.9586C327.972 8.71443 330.814 7.612 334.097 7.612C335.986 7.612 337.731 8.00172 339.256 8.86455C340.463 9.49806 341.594 10.1641 342.646 10.8639C343.348 11.286 344.044 11.476 344.765 11.476C345.241 11.476 345.498 11.3421 345.703 11.1378L345.733 11.1071L345.765 11.0777C345.969 10.8914 346.261 10.4535 346.394 9.43732L346.621 7.696H357.258L356.906 9.99805C356.259 14.2323 354.891 17.6496 352.531 19.8776C350.277 22.0582 347.442 23.12 344.177 23.12C342.301 23.12 340.568 22.7635 339.049 21.9677C337.839 21.3337 336.708 20.6961 335.658 20.0546L335.602 20.0201ZM351.149 18.432C352.722 16.9513 353.856 14.706 354.549 11.696C354.695 11.0631 354.822 10.3965 354.929 9.696H348.377C348.209 10.984 347.789 11.936 347.117 12.552C346.501 13.168 345.717 13.476 344.765 13.476C343.645 13.476 342.581 13.168 341.573 12.552C340.565 11.88 339.473 11.236 338.297 10.62C337.121 9.948 335.721 9.612 334.097 9.612C331.297 9.612 328.973 10.536 327.125 12.384C325.598 13.8647 324.472 16.11 323.748 19.12C323.596 19.7529 323.462 20.4195 323.345 21.12H329.897C330.121 19.832 330.541 18.88 331.157 18.264C331.829 17.648 332.613 17.34 333.509 17.34C334.685 17.34 335.749 17.676 336.701 18.348C337.709 18.964 338.801 19.58 339.977 20.196C341.153 20.812 342.553 21.12 344.177 21.12C346.977 21.12 349.301 20.224 351.149 18.432Z" fill="currentColor"/>
<path fill-rule="evenodd" clip-rule="evenodd" d="M292.921 69.7189V72.864C294.657 72.864 296.365 73.172 298.045 73.788C299.725 74.404 301.097 75.384 302.161 76.728C303.225 78.072 303.757 79.864 303.757 82.104C303.757 84.288 303.225 86.052 302.161 87.396C301.097 88.796 299.697 89.832 297.961 90.504C296.281 91.176 294.461 91.512 292.501 91.512H280.489V84.456H290.737C291.969 84.456 292.921 84.26 293.593 83.868C294.265 83.476 294.601 82.804 294.601 81.852C294.601 80.956 294.265 80.312 293.593 79.92C292.921 79.528 291.969 79.332 290.737 79.332H285.193V69.7647C284.512 69.6718 283.846 69.5524 283.193 69.4063C281.08 68.9335 279.115 68.1821 277.297 67.152C273.993 65.248 271.389 62.644 269.485 59.34C267.637 56.036 266.713 52.256 266.713 48C266.713 43.632 267.637 39.796 269.485 36.492C271.389 33.132 273.993 30.5 277.297 28.596C280.657 26.636 284.521 25.656 288.889 25.656C294.433 25.656 299.081 27.112 302.833 30.024C306.139 32.5521 308.39 35.9454 309.585 40.204C309.767 40.8507 309.924 41.5174 310.057 42.204H296.701C296.197 40.412 295.245 39.012 293.845 38.004C292.445 36.996 290.765 36.492 288.805 36.492C286.957 36.492 285.333 36.968 283.933 37.92C282.589 38.816 281.525 40.132 280.741 41.868C279.957 43.548 279.565 45.536 279.565 47.832C279.565 49.568 279.789 51.136 280.237 52.536C280.685 53.936 281.301 55.14 282.085 56.148C282.925 57.156 283.905 57.94 285.025 58.5C286.145 59.004 287.405 59.256 288.805 59.256C290.149 59.256 291.325 59.032 292.333 58.584C293.397 58.136 294.293 57.492 295.021 56.652C295.805 55.812 296.365 54.776 296.701 53.544H310.057C309.92 54.2299 309.757 54.8965 309.568 55.544C308.368 59.6546 306.123 62.9919 302.833 65.556C300.509 67.3677 297.871 68.6264 294.921 69.3322C294.27 69.4881 293.603 69.617 292.921 69.7189ZM295.932 71.1401C298.922 70.3515 301.64 69.0215 304.063 67.1335C308.274 63.8508 310.923 59.4133 312.018 53.9362L312.497 51.544H295.174L294.772 53.0178C294.511 53.972 294.098 54.7102 293.559 55.2874L293.534 55.3143L293.51 55.3421C292.991 55.9413 292.349 56.4071 291.557 56.7407L291.539 56.7484L291.521 56.7564C290.818 57.0687 289.929 57.256 288.805 57.256C287.666 57.256 286.703 57.0549 285.883 56.6926C285.046 56.2678 284.3 55.6756 283.643 54.8936C283.033 54.1014 282.525 53.1227 282.142 51.9265C281.767 50.7554 281.565 49.3975 281.565 47.832C281.565 45.7603 281.919 44.0736 282.553 42.7138L282.559 42.7025L282.564 42.6912C283.222 41.2347 284.063 40.2374 285.043 39.5841L285.05 39.579L285.058 39.5739C286.096 38.8681 287.32 38.492 288.805 38.492C290.405 38.492 291.662 38.8967 292.677 39.6271C293.679 40.349 294.384 41.3524 294.776 42.7455L295.186 44.204H312.481L312.021 41.824C310.931 36.1928 308.29 31.6816 304.054 28.4398C299.896 25.2145 294.797 23.656 288.889 23.656C284.213 23.656 279.994 24.7082 276.293 26.8663C272.678 28.9507 269.822 31.8413 267.745 35.506L267.74 35.5157C265.701 39.1612 264.713 43.3433 264.713 48C264.713 52.5546 265.705 56.6784 267.74 60.3163L267.746 60.3275L267.752 60.3386C269.832 63.9477 272.689 66.805 276.299 68.8849L276.305 68.8885L276.311 68.8921C278.439 70.0977 280.736 70.9474 283.193 71.4517V81.332H290.737C291.798 81.332 292.344 81.5077 292.582 81.6458C292.59 81.6792 292.601 81.7442 292.601 81.852C292.601 82.0169 292.581 82.1087 292.569 82.1496C292.324 82.2864 291.779 82.456 290.737 82.456H278.489V93.512H292.501C294.691 93.512 296.761 93.1364 298.694 92.365C300.743 91.5697 302.444 90.3228 303.742 88.6215C305.146 86.8397 305.757 84.6058 305.757 82.104C305.757 79.5525 305.149 77.2794 303.729 75.4866C302.426 73.8404 300.744 72.6474 298.734 71.9103C297.811 71.5718 296.876 71.3147 295.932 71.1401Z" fill="currentColor"/>
<path fill-rule="evenodd" clip-rule="evenodd" d="M223.398 68.328C225.75 69.448 228.69 70.008 232.218 70.008C233.842 70.008 235.326 69.84 236.67 69.504C238.014 69.168 239.246 68.692 240.366 68.076C241.486 67.404 242.466 66.648 243.306 65.808C243.535 65.5632 243.757 65.3122 243.969 65.0549C244.535 64.3703 245.042 63.6413 245.49 62.868L247.002 69H257.502V42.792C257.502 39.04 256.662 35.904 254.982 33.384C253.358 30.864 251.062 28.96 248.094 27.672C245.126 26.328 241.626 25.656 237.594 25.656C233.898 25.656 230.622 26.3 227.766 27.588C224.91 28.876 222.614 30.64 220.878 32.88C219.58 34.6112 218.699 36.5765 218.237 38.776C218.101 39.4224 218.002 40.0891 217.938 40.776H230.034C230.37 39.096 231.21 37.864 232.554 37.08C233.898 36.296 235.55 35.904 237.51 35.904C239.358 35.904 240.814 36.212 241.878 36.828C242.942 37.444 243.698 38.368 244.146 39.6C244.461 40.3701 244.678 41.2714 244.796 42.304C244.867 42.9234 244.902 43.5901 244.902 44.304H234.654C230.566 44.304 227.178 44.892 224.49 46.068C221.802 47.188 219.814 48.728 218.526 50.688C217.294 52.592 216.678 54.804 216.678 57.324C216.678 59.676 217.21 61.832 218.274 63.792C219.394 65.696 221.102 67.208 223.398 68.328ZM223.704 44.2287C225.208 43.5728 226.875 43.0927 228.696 42.776H215.744L215.947 40.5916C216.258 37.2317 217.357 34.2408 219.278 31.68L219.287 31.6674L219.297 31.6549C221.254 29.1301 223.822 27.1728 226.944 25.7648C230.1 24.3412 233.665 23.656 237.594 23.656C241.839 23.656 245.627 24.3623 248.905 25.8437C252.194 27.2741 254.803 29.4199 256.655 32.2885C258.595 35.2053 259.502 38.7463 259.502 42.792V71H245.435L244.546 67.3937C243.621 68.29 242.567 69.0876 241.395 69.791L241.363 69.8103L241.33 69.8284C240.047 70.534 238.652 71.07 237.155 71.4443C235.628 71.8261 233.978 72.008 232.218 72.008C228.492 72.008 225.236 71.4186 222.538 70.1337L222.53 70.1297L222.521 70.1255C219.929 68.8609 217.899 67.0993 216.55 64.806L216.533 64.7764L216.516 64.7462C215.285 62.4772 214.678 59.9905 214.678 57.324C214.678 54.4629 215.383 51.8645 216.847 49.6015L216.851 49.5956L216.855 49.5897C218.407 47.2275 220.745 45.4646 223.704 44.2287ZM231.748 42.4064C232.684 42.3377 233.653 42.304 234.654 42.304H242.78C242.676 41.522 242.508 40.8783 242.295 40.3573L242.28 40.3207L242.266 40.2835C241.967 39.4612 241.505 38.9233 240.876 38.5589C240.232 38.1863 239.17 37.904 237.51 37.904C235.813 37.904 234.53 38.2427 233.562 38.8076C232.765 39.2722 232.232 39.9857 231.995 41.1682L231.748 42.4064ZM238.854 59.76C237.846 60.208 236.67 60.432 235.326 60.432C234.318 60.432 233.394 60.292 232.554 60.012C231.77 59.676 231.126 59.2 230.622 58.584C230.174 57.912 229.95 57.1 229.95 56.148C229.95 55.252 230.174 54.468 230.622 53.796C231.07 53.124 231.742 52.62 232.638 52.284C233.59 51.892 234.766 51.696 236.166 51.696H244.314V51.78C244.193 52.443 244.032 53.0817 243.831 53.696C243.658 54.2233 243.455 54.7326 243.222 55.224C242.774 56.232 242.186 57.128 241.458 57.912C240.73 58.696 239.862 59.312 238.854 59.76ZM241.706 53.696C241.615 53.925 241.518 54.1489 241.415 54.3678L241.404 54.3897L241.394 54.4117C241.033 55.2245 240.566 55.9338 239.992 56.5511C239.454 57.1308 238.81 57.5907 238.042 57.9324C237.339 58.2447 236.45 58.432 235.326 58.432C234.54 58.432 233.859 58.3278 233.268 58.141C232.833 57.9439 232.499 57.6939 232.237 57.3967C232.07 57.1136 231.95 56.7226 231.95 56.148C231.95 55.602 232.081 55.2134 232.286 54.9054C232.461 54.6433 232.762 54.3734 233.34 54.1567L233.37 54.1455L233.399 54.1334C234.04 53.8697 234.939 53.696 236.166 53.696H241.706Z" fill="currentColor"/>
<path fill-rule="evenodd" clip-rule="evenodd" d="M148.547 26.664H137.543V69H150.143V46.488C150.143 44.36 150.479 42.54 151.151 41.028C151.879 39.516 152.859 38.34 154.091 37.5C155.379 36.66 156.807 36.24 158.375 36.24C161.119 36.24 163.107 37.108 164.339 38.844C165.571 40.524 166.187 42.904 166.187 45.984V69H178.703V46.488C178.703 44.36 179.039 42.54 179.711 41.028C180.439 39.516 181.447 38.34 182.735 37.5C184.023 36.66 185.507 36.24 187.187 36.24C189.819 36.24 191.723 37.108 192.899 38.844C194.131 40.524 194.747 42.904 194.747 45.984V69H207.263V44.892C207.263 40.804 206.647 37.332 205.415 34.476C204.183 31.62 202.307 29.436 199.787 27.924C197.323 26.412 194.187 25.656 190.379 25.656C187.411 25.656 184.667 26.3 182.147 27.588C180.291 28.4956 178.678 29.6615 177.308 31.0858C176.818 31.5948 176.359 32.1369 175.931 32.712C175.587 32.0695 175.205 31.4739 174.786 30.9254C174.182 30.1354 173.5 29.4429 172.739 28.848C171.451 27.784 169.967 27 168.287 26.496C166.607 25.936 164.731 25.656 162.659 25.656C159.747 25.656 157.171 26.244 154.931 27.42C153.545 28.1663 152.329 29.0706 151.281 30.1327C150.678 30.7441 150.13 31.4079 149.639 32.124L148.547 26.664ZM150.82 27.8272L150.187 24.664H135.543V71H152.143V46.488C152.143 44.5777 152.444 43.058 152.967 41.8678C153.556 40.6539 154.308 39.7773 155.201 39.1641C156.153 38.5478 157.194 38.24 158.375 38.24C160.679 38.24 161.957 38.9433 162.708 40.0015L162.717 40.0142L162.727 40.0267C163.613 41.2348 164.187 43.1354 164.187 45.984V71H180.703V46.488C180.703 44.5778 181.004 43.0581 181.527 41.868C182.11 40.668 182.881 39.7931 183.828 39.1752C184.761 38.5667 185.858 38.24 187.187 38.24C189.347 38.24 190.535 38.9203 191.244 39.9657L191.265 39.9966L191.287 40.0267C192.173 41.2348 192.747 43.1354 192.747 45.984V71H209.263V44.892C209.263 40.6131 208.62 36.8553 207.252 33.6838C205.866 30.47 203.721 27.9541 200.824 26.2138C197.962 24.4604 194.438 23.656 190.379 23.656C187.117 23.656 184.064 24.3653 181.253 25.799C179.32 26.7459 177.614 27.9526 176.144 29.4167C175.504 28.6247 174.788 27.9139 173.993 27.2893C172.501 26.0617 170.794 25.1637 168.891 24.5891C166.984 23.9572 164.899 23.656 162.659 23.656C159.473 23.656 156.569 24.3013 154.002 25.6492L153.992 25.6541L153.983 25.6591C152.83 26.2803 151.774 27.0032 150.82 27.8272Z" fill="currentColor"/>
<path fill-rule="evenodd" clip-rule="evenodd" d="M113.442 26.664H102.27V69H114.87V50.1C114.87 47.972 115.122 46.208 115.626 44.808C116.186 43.352 116.942 42.204 117.894 41.364C118.902 40.524 120.078 39.936 121.422 39.6C122.822 39.208 124.362 39.012 126.042 39.012H130.242V25.656C129.563 25.656 128.896 25.6878 128.242 25.7515C126.683 25.9031 125.194 26.2353 123.774 26.748C121.814 27.476 120.078 28.484 118.566 29.772C117.75 30.4672 116.991 31.2359 116.289 32.078C115.69 32.7959 115.133 33.5673 114.618 34.392L113.442 26.664ZM115.901 29.5266L115.161 24.664H100.27V71H116.87V50.1C116.87 48.1239 117.105 46.6147 117.501 45.5055C117.965 44.3059 118.547 43.4619 119.197 42.882C119.956 42.2551 120.849 41.8049 121.907 41.5403L121.934 41.5335L121.961 41.5259C123.161 41.19 124.517 41.012 126.042 41.012H132.242V23.656H130.242C127.731 23.656 125.344 24.0548 123.095 24.8669L123.086 24.87L123.078 24.8732C120.91 25.6783 118.968 26.802 117.269 28.2495C116.795 28.6537 116.338 29.0795 115.901 29.5266Z" fill="currentColor"/>
<path fill-rule="evenodd" clip-rule="evenodd" d="M59.9143 67.152C63.1623 69.056 66.8303 70.008 70.9183 70.008C75.0623 70.008 78.7583 69.056 82.0063 67.152C85.2543 65.248 87.8303 62.644 89.7343 59.34C91.6383 55.98 92.5903 52.144 92.5903 47.832C92.5903 43.52 91.6383 39.712 89.7343 36.408C87.8303 33.048 85.2543 30.416 82.0063 28.512C78.7583 26.608 75.0623 25.656 70.9183 25.656C66.8863 25.656 63.2183 26.608 59.9143 28.512C56.6663 30.416 54.0903 33.048 52.1863 36.408C50.2823 39.712 49.3303 43.548 49.3303 47.916C49.3303 52.172 50.2823 55.98 52.1863 59.34C54.0903 62.644 56.6663 65.248 59.9143 67.152ZM50.45 35.4155C52.5225 31.7605 55.3452 28.8722 58.9029 26.7866L58.9093 26.7829L58.9157 26.7791C62.541 24.69 66.5567 23.656 70.9183 23.656C75.3811 23.656 79.4327 24.685 83.0178 26.7866C86.5756 28.8722 89.3984 31.7608 91.4709 35.4159C93.5693 39.0601 94.5903 43.2189 94.5903 47.832C94.5903 52.4485 93.568 56.6315 91.4744 60.326L91.4708 60.3323L91.4672 60.3386C89.3922 63.9393 86.5692 66.7955 83.0178 68.8774C79.4327 70.979 75.3811 72.008 70.9183 72.008C66.5063 72.008 62.4837 70.9765 58.9029 68.8774C55.3514 66.7955 52.5285 63.9393 50.4535 60.3386L50.4498 60.3323L50.4463 60.326C48.3549 56.6354 47.3303 52.4815 47.3303 47.916C47.3303 43.2518 48.3492 39.0637 50.45 35.4155ZM75.3703 57.828C74.0823 58.668 72.5983 59.088 70.9183 59.088C69.2943 59.088 67.8103 58.668 66.4663 57.828C65.1783 56.988 64.1423 55.728 63.3583 54.048C62.5743 52.368 62.1823 50.296 62.1823 47.832C62.1823 45.368 62.5743 43.296 63.3583 41.616C64.1423 39.936 65.1783 38.676 66.4663 37.836C67.8103 36.996 69.3223 36.576 71.0023 36.576C72.6823 36.576 74.1663 36.996 75.4543 37.836C76.7423 38.676 77.7783 39.936 78.5623 41.616C79.3463 43.296 79.7383 45.368 79.7383 47.832C79.7383 50.296 79.3463 52.368 78.5623 54.048C77.7783 55.728 76.7143 56.988 75.3703 57.828ZM67.543 39.5216C68.5457 38.8992 69.681 38.576 71.0023 38.576C72.3317 38.576 73.4287 38.9027 74.3618 39.5112C75.2782 40.1089 76.0911 41.05 76.75 42.4618C77.3767 43.8049 77.7383 45.5686 77.7383 47.832C77.7383 50.0954 77.3767 51.8591 76.75 53.2022C76.1011 54.5927 75.2742 55.5296 74.3103 56.132L74.294 56.1422L74.2778 56.1528C73.3447 56.7613 72.2477 57.088 70.9183 57.088C69.6663 57.088 68.5565 56.7717 67.543 56.1424C66.6331 55.5443 65.8257 54.6059 65.1707 53.2022C64.5439 51.8591 64.1823 50.0954 64.1823 47.832C64.1823 45.5686 64.5439 43.8049 65.1707 42.4618C65.8257 41.0582 66.633 40.1198 67.543 39.5216Z" fill="currentColor"/>
<path fill-rule="evenodd" clip-rule="evenodd" d="M3.80518 71V8.20001H46.8652V22.364H20.4052V32.644H41.2372V46.472H20.4052V71H3.80518ZM18.4052 44.472H39.2372V34.644H18.4052V20.364H44.8652V10.2H5.80518V69H18.4052V44.472Z" fill="currentColor"/>
</svg>
