<svg width="420" height="94" viewBox="0 0 420 94" fill="none" xmlns="http://www.w3.org/2000/svg">
<path fill-rule="evenodd" clip-rule="evenodd" d="M380.526 67.152C383.774 69.056 387.442 70.008 391.53 70.008C395.674 70.008 399.37 69.056 402.618 67.152C405.866 65.248 408.442 62.644 410.346 59.34C412.25 55.98 413.202 52.144 413.202 47.832C413.202 43.52 412.25 39.712 410.346 36.408C408.442 33.048 405.866 30.416 402.618 28.512C399.37 26.608 395.674 25.656 391.53 25.656C387.498 25.656 383.83 26.608 380.526 28.512C377.278 30.416 374.702 33.048 372.798 36.408C370.894 39.712 369.942 43.548 369.942 47.916C369.942 52.172 370.894 55.98 372.798 59.34C374.702 62.644 377.278 65.248 380.526 67.152ZM371.061 35.4176C373.133 31.7617 375.956 28.8726 379.515 26.7866L379.521 26.7829L379.528 26.7791C383.153 24.69 387.168 23.656 391.53 23.656C395.993 23.656 400.045 24.685 403.63 26.7866C407.188 28.8726 410.011 31.7617 412.084 35.4176C414.182 39.0614 415.202 43.2197 415.202 47.832C415.202 52.4485 414.18 56.6315 412.086 60.326L412.083 60.3323L412.079 60.3386C410.004 63.9393 407.181 66.7955 403.63 68.8774C400.045 70.979 395.993 72.008 391.53 72.008C387.118 72.008 383.096 70.9765 379.515 68.8774C375.963 66.7955 373.14 63.9393 371.065 60.3386L371.062 60.3323L371.058 60.326C368.967 56.6354 367.942 52.4815 367.942 47.916C367.942 43.2527 368.961 39.0653 371.061 35.4176ZM395.982 57.828C394.694 58.668 393.21 59.088 391.53 59.088C389.906 59.088 388.422 58.668 387.078 57.828C385.79 56.988 384.754 55.728 383.97 54.048C383.186 52.368 382.794 50.296 382.794 47.832C382.794 45.368 383.186 43.296 383.97 41.616C384.754 39.936 385.79 38.676 387.078 37.836C388.422 36.996 389.934 36.576 391.614 36.576C393.294 36.576 394.778 36.996 396.066 37.836C397.354 38.676 398.39 39.936 399.174 41.616C399.958 43.296 400.35 45.368 400.35 47.832C400.35 50.296 399.958 52.368 399.174 54.048C398.39 55.728 397.326 56.988 395.982 57.828ZM388.155 39.5217C389.157 38.8992 390.293 38.576 391.614 38.576C392.944 38.576 394.041 38.9027 394.974 39.5112C395.89 40.1089 396.703 41.05 397.362 42.4618C397.989 43.8049 398.35 45.5686 398.35 47.832C398.35 50.0954 397.989 51.8591 397.362 53.2022C396.713 54.5927 395.886 55.5296 394.922 56.132L394.906 56.1422L394.89 56.1528C393.957 56.7613 392.86 57.088 391.53 57.088C390.278 57.088 389.168 56.7717 388.155 56.1423C387.245 55.5442 386.438 54.6058 385.783 53.2022C385.156 51.8591 384.794 50.0954 384.794 47.832C384.794 45.5686 385.156 43.8049 385.783 42.4618C386.437 41.0582 387.245 40.1199 388.155 39.5217Z" fill="currentColor"/>
<path fill-rule="evenodd" clip-rule="evenodd" d="M324.399 70.1297L324.391 70.1255C321.798 68.8609 319.769 67.0993 318.42 64.806L318.402 64.7764L318.386 64.7462C317.154 62.4772 316.548 59.9905 316.548 57.324C316.548 54.4629 317.252 51.8645 318.716 49.6015L318.72 49.5956L318.724 49.5896C320.276 47.2275 322.615 45.4646 325.574 44.2287C327.077 43.5728 328.745 43.0927 330.566 42.776H317.614L317.816 40.5916C318.127 37.2317 319.227 34.2408 321.148 31.68L321.157 31.6674L321.167 31.6549C323.123 29.1301 325.691 27.1727 328.813 25.7648C331.97 24.3412 335.534 23.656 339.464 23.656C343.708 23.656 347.496 24.3622 350.774 25.8434C354.063 27.2737 356.673 29.4197 358.525 32.2885C360.465 35.2052 361.372 38.7463 361.372 42.792V71H347.305L346.416 67.3937C345.49 68.29 344.437 69.0876 343.265 69.791L343.232 69.8103L343.199 69.8284C341.917 70.534 340.522 71.07 339.025 71.4443C337.498 71.8261 335.848 72.008 334.088 72.008C330.362 72.008 327.106 71.4186 324.408 70.1337L324.399 70.1297ZM345.839 65.0549C346.405 64.3703 346.912 63.6413 347.36 62.868L348.872 69H359.372V42.792C359.372 39.04 358.532 35.904 356.852 33.384C355.228 30.864 352.932 28.96 349.964 27.672C346.996 26.328 343.496 25.656 339.464 25.656C335.768 25.656 332.492 26.3 329.636 27.588C326.78 28.876 324.484 30.64 322.748 32.88C321.449 34.6112 320.569 36.5765 320.107 38.776C319.971 39.4224 319.871 40.0891 319.808 40.776H331.904C332.24 39.096 333.08 37.864 334.424 37.08C335.768 36.296 337.42 35.904 339.38 35.904C341.228 35.904 342.684 36.212 343.748 36.828C344.812 37.444 345.568 38.368 346.016 39.6C346.331 40.3701 346.547 41.2714 346.665 42.304C346.736 42.9234 346.772 43.5901 346.772 44.304H336.524C332.436 44.304 329.048 44.892 326.36 46.068C323.672 47.188 321.684 48.728 320.396 50.688C319.164 52.592 318.548 54.804 318.548 57.324C318.548 59.676 319.08 61.832 320.144 63.792C321.264 65.696 322.972 67.208 325.268 68.328C327.62 69.448 330.56 70.008 334.088 70.008C335.712 70.008 337.196 69.84 338.54 69.504C339.884 69.168 341.116 68.692 342.236 68.076C343.356 67.404 344.336 66.648 345.176 65.808C345.405 65.5632 345.626 65.3122 345.839 65.0549ZM344.65 42.304C344.545 41.522 344.378 40.8783 344.164 40.3573L344.15 40.3207L344.136 40.2835C343.837 39.4612 343.375 38.9233 342.746 38.5588C342.102 38.1862 341.039 37.904 339.38 37.904C337.683 37.904 336.4 38.2427 335.431 38.8076C334.635 39.2722 334.101 39.9857 333.865 41.1682L333.617 42.4063C334.553 42.3377 335.522 42.304 336.524 42.304H344.65ZM343.274 54.3897L343.284 54.3678C343.388 54.1489 343.485 53.925 343.575 53.696H338.036C336.809 53.696 335.91 53.8696 335.269 54.1334L335.24 54.1455L335.21 54.1567C334.632 54.3734 334.33 54.6433 334.156 54.9054C333.95 55.2134 333.82 55.602 333.82 56.148C333.82 56.7225 333.94 57.1136 334.107 57.3967C334.369 57.6939 334.703 57.9438 335.137 58.1409C335.728 58.3278 336.409 58.432 337.196 58.432C338.32 58.432 339.209 58.2447 339.911 57.9324C340.68 57.5907 341.324 57.1308 341.862 56.5511C342.435 55.9338 342.903 55.2245 343.264 54.4117L343.274 54.3897ZM334.424 60.012C333.64 59.676 332.996 59.2 332.492 58.584C332.044 57.912 331.82 57.1 331.82 56.148C331.82 55.252 332.044 54.468 332.492 53.796C332.94 53.124 333.612 52.62 334.508 52.284C335.46 51.892 336.636 51.696 338.036 51.696H346.184V51.78C346.063 52.443 345.902 53.0817 345.7 53.696C345.527 54.2233 345.324 54.7326 345.092 55.224C344.644 56.232 344.056 57.128 343.328 57.912C342.6 58.696 341.732 59.312 340.724 59.76C339.716 60.208 338.54 60.432 337.196 60.432C336.188 60.432 335.264 60.292 334.424 60.012ZM335.424 20.0201L335.37 19.9819C334.759 19.5505 334.099 19.34 333.332 19.34C332.96 19.34 332.665 19.4453 332.367 19.7063C332.156 19.9329 331.869 20.4338 331.69 21.4627L331.402 23.12H320.807L321.195 20.7912C321.898 16.574 323.263 13.1775 325.545 10.9586C327.794 8.71443 330.637 7.612 333.92 7.612C335.809 7.612 337.553 8.00172 339.079 8.86455C340.286 9.49806 341.416 10.1641 342.469 10.8639C343.171 11.286 343.867 11.476 344.588 11.476C345.063 11.476 345.321 11.3421 345.525 11.1378L345.556 11.1071L345.588 11.0777C345.791 10.8914 346.084 10.4535 346.216 9.43732L346.444 7.696H357.08L356.729 9.99805C356.082 14.2323 354.714 17.6496 352.354 19.8776C350.1 22.0582 347.264 23.12 344 23.12C342.124 23.12 340.391 22.7635 338.872 21.9677C337.661 21.3337 336.531 20.6961 335.481 20.0546L335.424 20.0201ZM350.972 18.432C352.545 16.9513 353.678 14.706 354.372 11.696C354.518 11.0631 354.645 10.3965 354.752 9.696H348.2C348.032 10.984 347.612 11.936 346.94 12.552C346.324 13.168 345.54 13.476 344.588 13.476C343.468 13.476 342.404 13.168 341.396 12.552C340.388 11.88 339.296 11.236 338.12 10.62C336.944 9.948 335.544 9.612 333.92 9.612C331.12 9.612 328.796 10.536 326.948 12.384C325.421 13.8647 324.295 16.11 323.571 19.12C323.419 19.7529 323.284 20.4195 323.168 21.12H329.72C329.944 19.832 330.364 18.88 330.98 18.264C331.652 17.648 332.436 17.34 333.332 17.34C334.508 17.34 335.572 17.676 336.524 18.348C337.532 18.964 338.624 19.58 339.8 20.196C340.976 20.812 342.376 21.12 344 21.12C346.8 21.12 349.124 20.224 350.972 18.432Z" fill="currentColor"/>
<path fill-rule="evenodd" clip-rule="evenodd" d="M292.744 69.7189V72.864C294.48 72.864 296.188 73.172 297.868 73.788C299.548 74.404 300.92 75.384 301.984 76.728C303.048 78.072 303.58 79.864 303.58 82.104C303.58 84.288 303.048 86.052 301.984 87.396C300.92 88.796 299.52 89.832 297.784 90.504C296.104 91.176 294.284 91.512 292.324 91.512H280.312V84.456H290.56C291.792 84.456 292.744 84.26 293.416 83.868C294.088 83.476 294.424 82.804 294.424 81.852C294.424 80.956 294.088 80.312 293.416 79.92C292.744 79.528 291.792 79.332 290.56 79.332H285.016V69.7647C284.335 69.6718 283.668 69.5524 283.016 69.4063C280.903 68.9335 278.938 68.1821 277.12 67.152C273.816 65.248 271.212 62.644 269.308 59.34C267.46 56.036 266.536 52.256 266.536 48C266.536 43.632 267.46 39.796 269.308 36.492C271.212 33.132 273.816 30.5 277.12 28.596C280.48 26.636 284.344 25.656 288.712 25.656C294.256 25.656 298.904 27.112 302.656 30.024C305.962 32.5521 308.213 35.9454 309.408 40.204C309.59 40.8507 309.747 41.5174 309.88 42.204H296.524C296.02 40.412 295.068 39.012 293.668 38.004C292.268 36.996 290.588 36.492 288.628 36.492C286.78 36.492 285.156 36.968 283.756 37.92C282.412 38.816 281.348 40.132 280.564 41.868C279.78 43.548 279.388 45.536 279.388 47.832C279.388 49.568 279.612 51.136 280.06 52.536C280.508 53.936 281.124 55.14 281.908 56.148C282.748 57.156 283.728 57.94 284.848 58.5C285.968 59.004 287.228 59.256 288.628 59.256C289.972 59.256 291.148 59.032 292.156 58.584C293.22 58.136 294.116 57.492 294.844 56.652C295.628 55.812 296.188 54.776 296.524 53.544H309.88C309.743 54.2299 309.58 54.8965 309.391 55.544C308.191 59.6546 305.946 62.9919 302.656 65.556C300.332 67.3677 297.694 68.6264 294.744 69.3322C294.092 69.4881 293.426 69.617 292.744 69.7189ZM295.755 71.1401C298.745 70.3515 301.463 69.0215 303.885 67.1335C308.097 63.8508 310.746 59.4133 311.841 53.9362L312.319 51.544H294.996L294.594 53.0178C294.334 53.972 293.92 54.7102 293.382 55.2874L293.357 55.3143L293.332 55.3421C292.813 55.9413 292.172 56.4071 291.38 56.7407L291.362 56.7484L291.344 56.7564C290.641 57.0687 289.752 57.256 288.628 57.256C287.488 57.256 286.526 57.0549 285.705 56.6926C284.868 56.2678 284.123 55.6756 283.466 54.8936C282.855 54.1014 282.348 53.1227 281.965 51.9265C281.59 50.7554 281.388 49.3975 281.388 47.832C281.388 45.7603 281.742 44.0736 282.376 42.7138L282.382 42.7025L282.387 42.6912C283.044 41.2347 283.885 40.2374 284.865 39.5841L284.873 39.579L284.88 39.5739C285.918 38.8681 287.143 38.492 288.628 38.492C290.228 38.492 291.485 38.8967 292.499 39.6271C293.502 40.349 294.207 41.3524 294.599 42.7455L295.009 44.204H312.304L311.843 41.824C310.754 36.1928 308.113 31.6816 303.877 28.4398C299.718 25.2145 294.62 23.656 288.712 23.656C284.036 23.656 279.817 24.7082 276.116 26.8663C272.501 28.9507 269.644 31.8413 267.568 35.506L267.562 35.5157C265.523 39.1612 264.536 43.3433 264.536 48C264.536 52.5546 265.528 56.6784 267.562 60.3163L267.569 60.3275L267.575 60.3386C269.655 63.9477 272.512 66.805 276.121 68.8849L276.128 68.8885L276.134 68.8921C278.262 70.0977 280.559 70.9474 283.016 71.4517V81.332H290.56C291.621 81.332 292.166 81.5077 292.405 81.6458C292.413 81.6792 292.424 81.7442 292.424 81.852C292.424 82.0169 292.404 82.1087 292.392 82.1496C292.147 82.2864 291.602 82.456 290.56 82.456H278.312V93.512H292.324C294.513 93.512 296.584 93.1364 298.517 92.365C300.566 91.5697 302.267 90.3228 303.565 88.6215C304.968 86.8397 305.58 84.6058 305.58 82.104C305.58 79.5525 304.971 77.2794 303.552 75.4866C302.249 73.8404 300.567 72.6474 298.556 71.9103C297.633 71.5718 296.699 71.3147 295.755 71.1401Z" fill="currentColor"/>
<path fill-rule="evenodd" clip-rule="evenodd" d="M223.221 68.328C225.573 69.448 228.513 70.008 232.041 70.008C233.665 70.008 235.149 69.84 236.493 69.504C237.837 69.168 239.069 68.692 240.189 68.076C241.309 67.404 242.289 66.648 243.129 65.808C243.358 65.5632 243.579 65.3122 243.792 65.0549C244.358 64.3703 244.865 63.6413 245.313 62.868L246.825 69H257.325V42.792C257.325 39.04 256.485 35.904 254.805 33.384C253.181 30.864 250.885 28.96 247.917 27.672C244.949 26.328 241.449 25.656 237.417 25.656C233.721 25.656 230.445 26.3 227.589 27.588C224.733 28.876 222.437 30.64 220.701 32.88C219.402 34.6112 218.522 36.5765 218.06 38.776C217.924 39.4224 217.824 40.0891 217.761 40.776H229.857C230.193 39.096 231.033 37.864 232.377 37.08C233.721 36.296 235.373 35.904 237.333 35.904C239.181 35.904 240.637 36.212 241.701 36.828C242.765 37.444 243.521 38.368 243.969 39.6C244.284 40.3701 244.5 41.2714 244.618 42.304C244.689 42.9234 244.725 43.5901 244.725 44.304H234.477C230.389 44.304 227.001 44.892 224.313 46.068C221.625 47.188 219.637 48.728 218.349 50.688C217.117 52.592 216.501 54.804 216.501 57.324C216.501 59.676 217.033 61.832 218.097 63.792C219.217 65.696 220.925 67.208 223.221 68.328ZM223.527 44.2287C225.03 43.5728 226.698 43.0927 228.519 42.776H215.567L215.769 40.5916C216.08 37.2317 217.18 34.2408 219.101 31.68L219.11 31.6674L219.12 31.6549C221.077 29.1301 223.645 27.1728 226.767 25.7648C229.923 24.3412 233.488 23.656 237.417 23.656C241.661 23.656 245.45 24.3623 248.728 25.8437C252.017 27.2741 254.626 29.4199 256.478 32.2885C258.418 35.2053 259.325 38.7463 259.325 42.792V71H245.258L244.369 67.3937C243.444 68.29 242.39 69.0876 241.218 69.791L241.186 69.8103L241.153 69.8284C239.87 70.534 238.475 71.07 236.978 71.4443C235.451 71.8261 233.801 72.008 232.041 72.008C228.315 72.008 225.059 71.4186 222.361 70.1337L222.352 70.1297L222.344 70.1255C219.751 68.8609 217.722 67.0993 216.373 64.806L216.355 64.7764L216.339 64.7462C215.107 62.4772 214.501 59.9905 214.501 57.324C214.501 54.4629 215.205 51.8645 216.67 49.6015L216.673 49.5956L216.677 49.5897C218.23 47.2275 220.568 45.4646 223.527 44.2287ZM231.57 42.4064C232.506 42.3377 233.476 42.304 234.477 42.304H242.603C242.499 41.522 242.331 40.8783 242.118 40.3573L242.103 40.3207L242.089 40.2835C241.79 39.4612 241.328 38.9233 240.699 38.5589C240.055 38.1863 238.993 37.904 237.333 37.904C235.636 37.904 234.353 38.2427 233.384 38.8076C232.588 39.2722 232.054 39.9857 231.818 41.1682L231.57 42.4064ZM238.677 59.76C237.669 60.208 236.493 60.432 235.149 60.432C234.141 60.432 233.217 60.292 232.377 60.012C231.593 59.676 230.949 59.2 230.445 58.584C229.997 57.912 229.773 57.1 229.773 56.148C229.773 55.252 229.997 54.468 230.445 53.796C230.893 53.124 231.565 52.62 232.461 52.284C233.413 51.892 234.589 51.696 235.989 51.696H244.137V51.78C244.016 52.443 243.855 53.0817 243.653 53.696C243.48 54.2233 243.278 54.7326 243.045 55.224C242.597 56.232 242.009 57.128 241.281 57.912C240.553 58.696 239.685 59.312 238.677 59.76ZM241.528 53.696C241.438 53.925 241.341 54.1489 241.237 54.3678L241.227 54.3897L241.217 54.4117C240.856 55.2245 240.388 55.9338 239.815 56.5511C239.277 57.1308 238.633 57.5907 237.864 57.9324C237.162 58.2447 236.273 58.432 235.149 58.432C234.363 58.432 233.682 58.3278 233.09 58.141C232.656 57.9439 232.322 57.6939 232.06 57.3967C231.893 57.1136 231.773 56.7226 231.773 56.148C231.773 55.602 231.904 55.2134 232.109 54.9054C232.284 54.6433 232.585 54.3734 233.163 54.1567L233.193 54.1455L233.222 54.1334C233.863 53.8697 234.762 53.696 235.989 53.696H241.528Z" fill="currentColor"/>
<path fill-rule="evenodd" clip-rule="evenodd" d="M148.37 26.664H137.366V69H149.966V46.488C149.966 44.36 150.302 42.54 150.974 41.028C151.702 39.516 152.682 38.34 153.914 37.5C155.202 36.66 156.63 36.24 158.198 36.24C160.942 36.24 162.93 37.108 164.162 38.844C165.394 40.524 166.01 42.904 166.01 45.984V69H178.526V46.488C178.526 44.36 178.862 42.54 179.534 41.028C180.262 39.516 181.27 38.34 182.558 37.5C183.846 36.66 185.33 36.24 187.01 36.24C189.642 36.24 191.546 37.108 192.722 38.844C193.954 40.524 194.57 42.904 194.57 45.984V69H207.086V44.892C207.086 40.804 206.47 37.332 205.238 34.476C204.006 31.62 202.13 29.436 199.61 27.924C197.146 26.412 194.01 25.656 190.202 25.656C187.234 25.656 184.49 26.3 181.97 27.588C180.114 28.4956 178.5 29.6615 177.13 31.0858C176.641 31.5948 176.182 32.1369 175.754 32.712C175.41 32.0695 175.028 31.4739 174.609 30.9254C174.005 30.1354 173.322 29.4429 172.562 28.848C171.274 27.784 169.79 27 168.11 26.496C166.43 25.936 164.554 25.656 162.482 25.656C159.57 25.656 156.994 26.244 154.754 27.42C153.368 28.1663 152.151 29.0706 151.104 30.1327C150.5 30.7441 149.953 31.4079 149.462 32.124L148.37 26.664ZM150.642 27.8272L150.01 24.664H135.366V71H151.966V46.488C151.966 44.5777 152.266 43.058 152.79 41.8678C153.379 40.6539 154.131 39.7773 155.024 39.1641C155.976 38.5478 157.017 38.24 158.198 38.24C160.502 38.24 161.78 38.9433 162.531 40.0015L162.54 40.0142L162.549 40.0267C163.435 41.2348 164.01 43.1354 164.01 45.984V71H180.526V46.488C180.526 44.5778 180.826 43.0581 181.35 41.868C181.933 40.668 182.703 39.7931 183.651 39.1752C184.584 38.5667 185.681 38.24 187.01 38.24C189.17 38.24 190.358 38.9203 191.066 39.9657L191.087 39.9966L191.109 40.0267C191.995 41.2348 192.57 43.1354 192.57 45.984V71H209.086V44.892C209.086 40.6131 208.443 36.8553 207.075 33.6838C205.688 30.47 203.544 27.9541 200.647 26.2138C197.785 24.4604 194.261 23.656 190.202 23.656C186.94 23.656 183.887 24.3653 181.076 25.799C179.143 26.7459 177.437 27.9526 175.967 29.4167C175.327 28.6247 174.611 27.9139 173.816 27.2893C172.324 26.0617 170.616 25.1637 168.714 24.5891C166.807 23.9572 164.722 23.656 162.482 23.656C159.296 23.656 156.392 24.3013 153.825 25.6492L153.815 25.6541L153.806 25.6591C152.652 26.2803 151.597 27.0032 150.642 27.8272Z" fill="currentColor"/>
<path fill-rule="evenodd" clip-rule="evenodd" d="M113.265 26.664H102.093V69H114.693V50.1C114.693 47.972 114.945 46.208 115.449 44.808C116.009 43.352 116.765 42.204 117.717 41.364C118.725 40.524 119.901 39.936 121.245 39.6C122.645 39.208 124.185 39.012 125.865 39.012H130.065V25.656C129.386 25.656 128.719 25.6878 128.065 25.7515C126.506 25.9031 125.017 26.2353 123.597 26.748C121.637 27.476 119.901 28.484 118.389 29.772C117.573 30.4672 116.814 31.2359 116.112 32.078C115.513 32.7959 114.956 33.5673 114.441 34.392L113.265 26.664ZM115.723 29.5266L114.983 24.664H100.093V71H116.693V50.1C116.693 48.1239 116.928 46.6147 117.323 45.5055C117.788 44.3059 118.37 43.4619 119.019 42.882C119.778 42.2551 120.672 41.8049 121.73 41.5403L121.757 41.5335L121.784 41.5259C122.984 41.19 124.339 41.012 125.865 41.012H132.065V23.656H130.065C127.554 23.656 125.166 24.0548 122.917 24.8669L122.909 24.87L122.9 24.8732C120.733 25.6783 118.791 26.802 117.092 28.2495C116.617 28.6537 116.161 29.0795 115.723 29.5266Z" fill="currentColor"/>
<path fill-rule="evenodd" clip-rule="evenodd" d="M59.7371 67.152C62.9851 69.056 66.6531 70.008 70.7411 70.008C74.8851 70.008 78.5811 69.056 81.8291 67.152C85.0771 65.248 87.6531 62.644 89.5571 59.34C91.4611 55.98 92.4131 52.144 92.4131 47.832C92.4131 43.52 91.4611 39.712 89.5571 36.408C87.6531 33.048 85.0771 30.416 81.8291 28.512C78.5811 26.608 74.8851 25.656 70.7411 25.656C66.7091 25.656 63.0411 26.608 59.7371 28.512C56.4891 30.416 53.9131 33.048 52.0091 36.408C50.1051 39.712 49.1531 43.548 49.1531 47.916C49.1531 52.172 50.1051 55.98 52.0091 59.34C53.9131 62.644 56.4891 65.248 59.7371 67.152ZM50.2727 35.4155C52.3453 31.7605 55.1679 28.8722 58.7256 26.7866L58.732 26.7829L58.7385 26.7791C62.3638 24.69 66.3794 23.656 70.7411 23.656C75.2038 23.656 79.2555 24.685 82.8405 26.7866C86.3983 28.8722 89.2211 31.7608 91.2937 35.4159C93.3921 39.0601 94.4131 43.2189 94.4131 47.832C94.4131 52.4485 93.3907 56.6315 91.2971 60.326L91.2936 60.3323L91.2899 60.3386C89.2149 63.9393 86.392 66.7955 82.8405 68.8774C79.2555 70.979 75.2038 72.008 70.7411 72.008C66.329 72.008 62.3065 70.9765 58.7256 68.8774C55.1741 66.7955 52.3512 63.9393 50.2762 60.3386L50.2726 60.3323L50.269 60.326C48.1777 56.6354 47.1531 52.4815 47.1531 47.916C47.1531 43.2518 48.1719 39.0637 50.2727 35.4155ZM75.1931 57.828C73.9051 58.668 72.4211 59.088 70.7411 59.088C69.1171 59.088 67.6331 58.668 66.2891 57.828C65.0011 56.988 63.9651 55.728 63.1811 54.048C62.3971 52.368 62.0051 50.296 62.0051 47.832C62.0051 45.368 62.3971 43.296 63.1811 41.616C63.9651 39.936 65.0011 38.676 66.2891 37.836C67.6331 36.996 69.1451 36.576 70.8251 36.576C72.5051 36.576 73.9891 36.996 75.2771 37.836C76.5651 38.676 77.6011 39.936 78.3851 41.616C79.1691 43.296 79.5611 45.368 79.5611 47.832C79.5611 50.296 79.1691 52.368 78.3851 54.048C77.6011 55.728 76.5371 56.988 75.1931 57.828ZM67.3657 39.5216C68.3684 38.8992 69.5037 38.576 70.8251 38.576C72.1545 38.576 73.2515 38.9027 74.1845 39.5112C75.101 40.1089 75.9139 41.05 76.5727 42.4618C77.1995 43.8049 77.5611 45.5686 77.5611 47.832C77.5611 50.0954 77.1995 51.8591 76.5727 53.2022C75.9238 54.5927 75.097 55.5296 74.1331 56.132L74.1167 56.1422L74.1005 56.1528C73.1675 56.7613 72.0705 57.088 70.7411 57.088C69.489 57.088 68.3792 56.7717 67.3658 56.1424C66.4558 55.5443 65.6485 54.6059 64.9934 53.2022C64.3667 51.8591 64.0051 50.0954 64.0051 47.832C64.0051 45.5686 64.3667 43.8049 64.9934 42.4618C65.6485 41.0582 66.4558 40.1198 67.3657 39.5216Z" fill="currentColor"/>
<path fill-rule="evenodd" clip-rule="evenodd" d="M3.62793 71V8.19998H46.6879V22.364H20.2279V32.644H41.0599V46.472H20.2279V71H3.62793ZM18.2279 44.472H39.0599V34.644H18.2279V20.364H44.6879V10.2H5.62793V69H18.2279V44.472Z" fill="currentColor"/>
</svg>
