<svg
  viewBox="0 0 133 59"
  xmlns="http://www.w3.org/2000/svg"
>
  <path
    d="M108.255 31.1158L112.605 28.6158V33.6157C112.605 32.7157 112.805 31.7824 113.205 30.8158C113.605 29.8158 114.122 28.8991 114.755 28.0658C115.422 27.1991 116.139 26.5491 116.905 26.1158L118.205 25.3658C119.372 24.6991 120.388 24.6158 121.255 25.1158C122.122 25.6158 122.555 26.5325 122.555 27.8658C122.555 26.9658 122.755 26.0325 123.155 25.0658C123.555 24.0658 124.072 23.1491 124.705 22.3158C125.372 21.4492 126.088 20.7992 126.855 20.3658L128.155 19.6158C129.322 18.9492 130.338 18.8658 131.205 19.3658C132.072 19.8658 132.505 20.7825 132.505 22.1158V44.1157L128.155 46.6156V24.6158L122.555 27.8658V49.8656L118.205 52.3656V30.3658L112.605 33.6157V55.6156L108.255 58.1156V31.1158ZM128.155 24.6158V46.6156L123.855 44.1157V22.1158L128.155 24.6158ZM118.205 30.3658V52.3656L113.855 49.8656V27.8658L118.205 30.3658ZM131.205 19.3658C130.338 18.8658 129.322 18.9492 128.155 19.6158L126.855 20.3658C126.088 20.7992 125.372 21.4492 124.705 22.3158C124.072 23.1491 123.555 24.0658 123.155 25.0658C122.755 26.0325 122.555 26.9658 122.555 27.8658L118.205 25.3658C118.205 24.4658 118.405 23.5325 118.805 22.5658C119.205 21.5658 119.738 20.6492 120.405 19.8158C121.072 18.9492 121.788 18.2992 122.555 17.8659L123.855 17.1159C124.988 16.4492 125.988 16.3659 126.855 16.8659L131.205 19.3658ZM108.255 31.1158V58.1156L103.905 55.6156V28.6158L108.255 31.1158ZM121.255 25.1158C120.388 24.6158 119.372 24.6991 118.205 25.3658L116.905 26.1158C116.139 26.5491 115.422 27.1991 114.755 28.0658C114.122 28.8991 113.605 29.8158 113.205 30.8158C112.805 31.7824 112.605 32.7157 112.605 33.6157L108.255 31.1158C108.255 30.2158 108.455 29.2824 108.855 28.3158C109.255 27.3158 109.789 26.3991 110.455 25.5658C111.122 24.6991 111.839 24.0491 112.605 23.6158L113.855 22.8658C115.022 22.1992 116.039 22.1158 116.905 22.6158L121.255 25.1158ZM112.605 28.6158L108.255 31.1158L103.905 28.6158L108.255 26.1158L112.605 28.6158Z"
    fill="currentColor"
  />
  <path
    d="M84.4759 33.1158L88.8259 30.6158V35.6157L93.1259 33.1158C93.1259 32.2158 93.3259 31.2824 93.7259 30.3158C94.1259 29.3158 94.6592 28.3991 95.3259 27.5658C95.9925 26.6991 96.7092 26.0491 97.4758 25.6158L101.776 23.1158V28.1158L97.4758 30.6158C97.4758 31.4824 97.2758 32.4158 96.8758 33.4157C96.4759 34.4157 95.9425 35.3491 95.2759 36.2157C94.6092 37.0491 93.8925 37.6824 93.1259 38.1157L88.8259 40.6157V55.6156L84.4759 58.1156V33.1158ZM84.4759 33.1158V58.1156L80.126 55.6156V30.6158L84.4759 33.1158ZM101.776 23.1158L97.4758 25.6158C96.7092 26.0491 95.9925 26.6991 95.3259 27.5658C94.6592 28.3991 94.1259 29.3158 93.7259 30.3158C93.3259 31.2824 93.1259 32.2158 93.1259 33.1158L88.8259 30.6158C88.8259 29.7158 89.0259 28.7825 89.4259 27.8158C89.8259 26.8158 90.3426 25.8991 90.9759 25.0658C91.6426 24.1992 92.3592 23.5492 93.1259 23.1158L97.4758 20.6158L101.776 23.1158ZM93.1259 33.1158L88.8259 35.6157L84.4759 33.1158L88.8259 30.6158L93.1259 33.1158ZM88.8259 30.6158L84.4759 33.1158L80.126 30.6158L84.4759 28.1158L88.8259 30.6158Z"
    fill="currentColor"
  />
  <path
    d="M62.8498 28.6158L71.4998 23.6158C72.6331 22.9492 73.6331 22.8658 74.4997 23.3658C75.3664 23.8658 75.7997 24.7825 75.7997 26.1158V45.1157C75.7997 45.9823 75.5997 46.9157 75.1997 47.9157C74.7998 48.9157 74.2664 49.849 73.5998 50.7156C72.9664 51.549 72.2664 52.1823 71.4998 52.6156L62.8498 57.6156C61.6832 58.2822 60.6665 58.3656 59.7999 57.8656C58.9332 57.3656 58.4999 56.4489 58.4999 55.1156V36.1157C58.4999 35.2158 58.6999 34.2824 59.0999 33.3158C59.4999 32.3158 60.0332 31.3991 60.6999 30.5658C61.3665 29.6991 62.0832 29.0491 62.8498 28.6158ZM62.8498 52.6156L71.4998 47.6157V28.6158L62.8498 33.6158V52.6158ZM71.4998 28.6158V47.6157L67.1498 45.1157V26.1158L71.4998 28.6158ZM71.4998 47.6157L62.8498 52.6156L58.4999 50.1156L67.1498 45.1157L71.4998 47.6157ZM74.4997 23.3658C73.6331 22.8658 72.6331 22.9492 71.4998 23.6158L62.8498 28.6158C62.0832 29.0491 61.3665 29.6991 60.6999 30.5658C60.0332 31.3991 59.4999 32.3158 59.0999 33.3158C58.6999 34.2824 58.4999 35.2158 58.4999 36.1157V55.1156C58.4999 56.4489 58.9332 57.3656 59.7999 57.8656L55.4499 55.3656C54.5832 54.8656 54.1499 53.9489 54.1499 52.6156V33.6158C54.1499 32.7158 54.3499 31.7824 54.7499 30.8158C55.1499 29.8158 55.6832 28.8991 56.3499 28.0658C57.0166 27.1991 57.7332 26.5492 58.4999 26.1158L67.1498 21.1159C68.3165 20.4492 69.3331 20.3659 70.1998 20.8659L74.4997 23.3658Z"
    fill="currentColor"
  />
  <path
    d="M45.5232 50.6156V40.6157L36.8733 45.6157V55.6156L32.5233 58.1156V5.81283L36.8733 3.31285V40.6157L45.5232 35.6158V25.6158L49.8232 23.1159V28.1158C49.8232 28.9825 49.6232 29.9158 49.2232 30.9158C48.8232 31.9158 48.2899 32.8491 47.6232 33.7158C46.9899 34.5491 46.2899 35.1824 45.5232 35.6158C46.6565 34.9491 47.6565 34.8658 48.5232 35.3658C49.3898 35.8658 49.8232 36.7824 49.8232 38.1157V48.1157L45.5232 50.6156ZM48.5232 35.3658C47.6565 34.8658 46.6565 34.9491 45.5232 35.6158L41.1732 33.1158C42.3399 32.4491 43.3566 32.3658 44.2232 32.8658L48.5232 35.3658ZM49.8232 23.1159L45.5232 25.6158L41.1732 23.1159L45.5232 20.6159L49.8232 23.1159ZM45.5232 40.6157V50.6156L41.1732 48.1157V38.1157L45.5232 40.6157ZM45.5232 25.6158V35.6158L41.1732 33.1158V23.1159L45.5232 25.6158ZM45.5232 35.6158L36.8733 40.6157L32.5233 38.1157L41.1732 33.1158L45.5232 35.6158ZM36.8733 3.31285L32.5233 5.81283L28.1733 3.31285L32.5233 0.812866L36.8733 3.31285ZM32.5233 5.81283V58.1156L28.1733 55.6156V3.31285L32.5233 5.81283Z"
    fill="currentColor"
  />
  <path
    d="M8.69994 40.6158C7.53328 41.2824 6.51662 41.3657 5.64996 40.8657C4.7833 40.3658 4.34997 39.4491 4.34997 38.1158V26.1159C4.34997 25.2159 4.54997 24.2825 4.94996 23.3159C5.34996 22.3159 5.88329 21.3992 6.54995 20.5659C7.21661 19.6992 7.93327 19.0492 8.69994 18.6159L19.4999 12.366C20.6332 11.6993 21.6332 11.616 22.4998 12.116C23.3998 12.616 23.8498 13.5326 23.8498 14.8659V21.8659L19.4999 24.3659V17.3659L8.69994 23.6159V35.6158L19.4999 29.3658C20.6332 28.6992 21.6332 28.6158 22.4998 29.1158C23.3998 29.6158 23.8498 30.5325 23.8498 31.8658V43.8657C23.8498 44.7324 23.6332 45.6657 23.1998 46.6657C22.7998 47.6657 22.2665 48.599 21.5998 49.4657C20.9665 50.299 20.2665 50.9323 19.4999 51.3657L8.69994 57.6156C7.53328 58.2823 6.51662 58.3656 5.64996 57.8656C4.7833 57.3656 4.34997 56.449 4.34997 55.1156V50.1157L8.69994 47.6157V52.6157L19.4999 46.3657V34.3658L8.69994 40.6158ZM19.4999 34.3658V46.3657L15.1499 43.8657V31.8658L19.4999 34.3658ZM19.4999 46.3657L8.69994 52.6157L4.34997 50.1157L15.1499 43.8657L19.4999 46.3657ZM19.4999 17.3659V24.3659L15.1499 21.8659V14.8659L19.4999 17.3659ZM8.69994 47.6157L4.34997 50.1157L0 47.6157L4.34997 45.1157L8.69994 47.6157ZM4.34997 50.1157V55.1156C4.34997 56.449 4.7833 57.3656 5.64996 57.8656L1.29999 55.3656C0.43333 54.8656 0 53.949 0 52.6157V47.6157L4.34997 50.1157ZM22.5498 29.1158C21.6498 28.6158 20.6332 28.6992 19.4999 29.3658L8.69994 35.6158L4.34997 33.1158L15.1499 26.8659C16.3165 26.1992 17.3332 26.1159 18.1999 26.6159L22.5498 29.1158ZM22.5498 12.116C21.6498 11.616 20.6332 11.6993 19.4999 12.366L8.69994 18.6159C7.93327 19.0492 7.21661 19.6992 6.54995 20.5659C5.88329 21.3992 5.34996 22.3159 4.94996 23.3159C4.54997 24.2825 4.34997 25.2159 4.34997 26.1159V38.1158C4.34997 39.4491 4.7833 40.3658 5.64996 40.8657L1.29999 38.3658C0.43333 37.8658 0 36.9491 0 35.6158V23.6159C0 22.7159 0.199999 21.7826 0.599996 20.8159C0.999992 19.8159 1.53332 18.8992 2.19998 18.0659C2.86665 17.1993 3.58331 16.5493 4.34997 16.1159L15.1499 9.86598C16.3165 9.19932 17.3332 9.11599 18.1999 9.61598L22.5498 12.116Z"
    fill="currentColor"
  />
</svg>
