<svg width="103" height="105" viewBox="0 0 103 105" fill="none" xmlns="http://www.w3.org/2000/svg">
<rect width="103" height="105" rx="51.5" fill="#F23846"/>
<path d="M66.2779 48.6374L70.1016 46.4399V50.835C70.1016 50.0439 70.2774 49.2234 70.6291 48.3737C70.9807 47.4947 71.4348 46.6889 71.9915 45.9564C72.5776 45.1946 73.2075 44.6232 73.8815 44.2423L75.0242 43.583C76.0497 42.997 76.9434 42.9237 77.7052 43.3633C78.4671 43.8028 78.848 44.6085 78.848 45.7806C78.848 44.9895 79.0238 44.169 79.3754 43.3193C79.727 42.4403 80.1812 41.6345 80.7379 40.902C81.3239 40.1402 81.9539 39.5688 82.6278 39.1879L83.7705 38.5286C84.796 37.9426 85.6897 37.8693 86.4515 38.3088C87.2134 38.7484 87.5943 39.5541 87.5943 40.7262V60.0648L83.7705 62.2623V42.9237L78.848 45.7806V65.1192L75.0242 67.3167V47.9781L70.1016 50.835V70.1736L66.2779 72.3712V48.6374ZM83.7705 42.9237V62.2623L79.9907 60.0648V40.7262L83.7705 42.9237ZM75.0242 47.9781V67.3167L71.2004 65.1192V45.7806L75.0242 47.9781ZM86.4515 38.3088C85.6897 37.8693 84.796 37.9426 83.7705 38.5286L82.6278 39.1879C81.9539 39.5688 81.3239 40.1402 80.7379 40.902C80.1812 41.6345 79.727 42.4403 79.3754 43.3193C79.0238 44.169 78.848 44.9895 78.848 45.7806L75.0242 43.583C75.0242 42.7919 75.2 41.9715 75.5516 41.1217C75.9032 40.2427 76.372 39.4369 76.9581 38.7044C77.5441 37.9426 78.174 37.3712 78.848 36.9903L79.9907 36.331C80.9869 35.745 81.8659 35.6718 82.6278 36.1113L86.4515 38.3088ZM66.2779 48.6374V72.3712L62.4541 70.1736V46.4399L66.2779 48.6374ZM77.7052 43.3633C76.9434 42.9237 76.0497 42.997 75.0242 43.583L73.8815 44.2423C73.2075 44.6232 72.5776 45.1946 71.9915 45.9564C71.4348 46.6889 70.9807 47.4947 70.6291 48.3737C70.2774 49.2234 70.1016 50.0439 70.1016 50.835L66.2779 48.6374C66.2779 47.8463 66.4537 47.0259 66.8053 46.1761C67.1569 45.2971 67.6257 44.4913 68.2117 43.7588C68.7977 42.997 69.4277 42.4256 70.1016 42.0447L71.2004 41.3854C72.226 40.7994 73.1196 40.7262 73.8815 41.1657L77.7052 43.3633ZM70.1016 46.4399L66.2779 48.6374L62.4541 46.4399L66.2779 44.2423L70.1016 46.4399Z" fill="#181818"/>
<path d="M55.0168 65.7783V56.9881L47.4132 61.3832V70.1735L43.5894 72.371V26.3951L47.4132 24.1976V56.9881L55.0168 52.5929V43.8026L58.7966 41.6051V46.0002C58.7966 46.762 58.6208 47.5825 58.2691 48.4615C57.9175 49.3405 57.4487 50.1609 56.8627 50.9228C56.306 51.6553 55.6907 52.212 55.0168 52.5929C56.013 52.0069 56.892 51.9336 57.6538 52.3732C58.4157 52.8127 58.7966 53.6184 58.7966 54.7905V63.5808L55.0168 65.7783ZM57.6538 52.3732C56.892 51.9336 56.013 52.0069 55.0168 52.5929L51.193 50.3953C52.2185 49.8093 53.1122 49.7361 53.874 50.1756L57.6538 52.3732ZM58.7966 41.6051L55.0168 43.8026L51.193 41.6051L55.0168 39.4075L58.7966 41.6051ZM55.0168 56.9881V65.7783L51.193 63.5808V54.7905L55.0168 56.9881ZM55.0168 43.8026V52.5929L51.193 50.3953V41.6051L55.0168 43.8026ZM55.0168 52.5929L47.4132 56.9881L43.5894 54.7905L51.193 50.3953L55.0168 52.5929ZM47.4132 24.1976L43.5894 26.3951L39.7656 24.1976L43.5894 22L47.4132 24.1976ZM43.5894 26.3951V72.371L39.7656 70.1735V24.1976L43.5894 26.3951Z" fill="#181818"/>
<path d="M22.6475 56.9878C21.622 57.5739 20.7283 57.6471 19.9665 57.2076C19.2047 56.7681 18.8238 55.9623 18.8238 54.7903V44.2419C18.8238 43.4508 18.9996 42.6304 19.3512 41.7807C19.7028 40.9016 20.1716 40.0959 20.7576 39.3633C21.3436 38.6015 21.9736 38.0301 22.6475 37.6492L32.141 32.1553C33.1373 31.5693 34.0163 31.496 34.7781 31.9356C35.5692 32.3751 35.9648 33.1808 35.9648 34.3529V40.5061L32.141 42.7036V36.5504L22.6475 42.0444V52.5927L32.141 47.0988C33.1373 46.5128 34.0163 46.4395 34.7781 46.879C35.5692 47.3185 35.9648 48.1243 35.9648 49.2963V59.8447C35.9648 60.6065 35.7743 61.4269 35.3934 62.3059C35.0418 63.185 34.573 64.0054 33.987 64.7672C33.4303 65.4997 32.815 66.0565 32.141 66.4374L22.6475 71.9313C21.622 72.5173 20.7283 72.5906 19.9665 72.1511C19.2047 71.7115 18.8238 70.9058 18.8238 69.7337V65.3386L22.6475 63.141V67.5362L32.141 62.0422V51.4939L22.6475 56.9878ZM32.141 51.4939V62.0422L28.3173 59.8447V49.2963L32.141 51.4939ZM32.141 62.0422L22.6475 67.5362L18.8238 65.3386L28.3173 59.8447L32.141 62.0422ZM32.141 36.5504V42.7036L28.3173 40.5061V34.3529L32.141 36.5504ZM22.6475 63.141L18.8238 65.3386L15 63.141L18.8238 60.9435L22.6475 63.141ZM18.8238 65.3386V69.7337C18.8238 70.9058 19.2047 71.7115 19.9665 72.1511L16.1427 69.9535C15.3809 69.514 15 68.7082 15 67.5362V63.141L18.8238 65.3386ZM34.8221 46.879C34.0309 46.4395 33.1373 46.5128 32.141 47.0988L22.6475 52.5927L18.8238 50.3951L28.3173 44.9012C29.3428 44.3152 30.2365 44.2419 30.9983 44.6815L34.8221 46.879ZM34.8221 31.9356C34.0309 31.496 33.1373 31.5693 32.141 32.1553L22.6475 37.6492C21.9736 38.0301 21.3436 38.6015 20.7576 39.3633C20.1716 40.0959 19.7028 40.9016 19.3512 41.7807C18.9996 42.6304 18.8238 43.4508 18.8238 44.2419V54.7903C18.8238 55.9623 19.2047 56.7681 19.9665 57.2076L16.1427 55.01C15.3809 54.5705 15 53.7647 15 52.5927V42.0444C15 41.2532 15.1758 40.4328 15.5274 39.5831C15.879 38.7041 16.3478 37.8983 16.9339 37.1658C17.5199 36.4039 18.1498 35.8326 18.8238 35.4517L28.3173 29.9577C29.3428 29.3717 30.2365 29.2985 30.9983 29.738L34.8221 31.9356Z" fill="#181818"/>
</svg>
